HIERARCHY
ROOT hip
{
  OFFSET -0.570224 89.8853 2.43558
  CHANNELS 6 Xposition Yposition Zposition Zrotation Xrotation Yrotation
  JOINT abdomen
  {
    OFFSET 0 7.2397 0
    CHANNELS 6 Xposition Yposition Zposition Zrotation Xrotation Yrotation
    JOINT chest
    {
      OFFSET 0 16.546 0
      CHANNELS 6 Xposition Yposition Zposition Zrotation Xrotation Yrotation
      JOINT neck
      {
        OFFSET 0 34.2149 0
        CHANNELS 6 Xposition Yposition Zposition Zrotation Xrotation Yrotation
        JOINT head
        {
          OFFSET 0 6.2923 0
          CHANNELS 6 Xposition Yposition Zposition Zrotation Xrotation Yrotation
          End Site
          {
            OFFSET 0 21.2161 0
          }
        }
      }
      JOINT lCollar
      {
        OFFSET 4.0639 26.6115 -1.1234
        CHANNELS 6 Xposition Yposition Zposition Zrotation Xrotation Yrotation
        JOINT lShldr
        {
          OFFSET 14.1772 0 0
          CHANNELS 6 Xposition Yposition Zposition Zrotation Xrotation Yrotation
          JOINT lForeArm
          {
            OFFSET 26.1234 0 0
            CHANNELS 6 Xposition Yposition Zposition Zrotation Xrotation Yrotation
            JOINT lHand
            {
              OFFSET 27.7188 0 0
              CHANNELS 6 Xposition Yposition Zposition Zrotation Xrotation Yrotation
              JOINT lThumb1
              {
                OFFSET 2.2979 -0.4685 1.8313
                CHANNELS 6 Xposition Yposition Zposition Zrotation Xrotation Yrotation
                JOINT lThumb2
                {
                  OFFSET 5.2953 0 0
                  CHANNELS 6 Xposition Yposition Zposition Zrotation Xrotation Yrotation
                  JOINT lThumb3
                  {
                    OFFSET 3.0181 0 0
                    CHANNELS 6 Xposition Yposition Zposition Zrotation Xrotation Yrotation
                    End Site
                    {
                      OFFSET 2.6294 0 0
                    }
                  }
                }
              }
              JOINT lIndex1
              {
                OFFSET 9.3793 0.2991 2.5924
                CHANNELS 6 Xposition Yposition Zposition Zrotation Xrotation Yrotation
                JOINT lIndex2
                {
                  OFFSET 4.3461 0 0
                  CHANNELS 6 Xposition Yposition Zposition Zrotation Xrotation Yrotation
                  JOINT lIndex3
                  {
                    OFFSET 2.1666 0 0
                    CHANNELS 6 Xposition Yposition Zposition Zrotation Xrotation Yrotation
                    End Site
                    {
                      OFFSET 2.2048 0 0
                    }
                  }
                }
              }
              JOINT lMid1
              {
                OFFSET 9.4769 0.8376 0.2947
                CHANNELS 6 Xposition Yposition Zposition Zrotation Xrotation Yrotation
                JOINT lMid2
                {
                  OFFSET 4.772 0 0
                  CHANNELS 6 Xposition Yposition Zposition Zrotation Xrotation Yrotation
                  JOINT lMid3
                  {
                    OFFSET 2.8722 0 0
                    CHANNELS 6 Xposition Yposition Zposition Zrotation Xrotation Yrotation
                    End Site
                    {
                      OFFSET 2.0959 0 0
                    }
                  }
                }
              }
              JOINT lRing1
              {
                OFFSET 8.6586 1.0176 -1.7016
                CHANNELS 6 Xposition Yposition Zposition Zrotation Xrotation Yrotation
                JOINT lRing2
                {
                  OFFSET 4.5461 0 0
                  CHANNELS 6 Xposition Yposition Zposition Zrotation Xrotation Yrotation
                  JOINT lRing3
                  {
                    OFFSET 2.506 0 0
                    CHANNELS 6 Xposition Yposition Zposition Zrotation Xrotation Yrotation
                    End Site
                    {
                      OFFSET 2.2023 0 0
                    }
                  }
                }
              }
              JOINT lPinky1
              {
                OFFSET 7.6901 0.6618 -3.9096
                CHANNELS 6 Xposition Yposition Zposition Zrotation Xrotation Yrotation
                JOINT lPinky2
                {
                  OFFSET 3.2119 0 0
                  CHANNELS 6 Xposition Yposition Zposition Zrotation Xrotation Yrotation
                  JOINT lPinky3
                  {
                    OFFSET 1.924 0 0
                    CHANNELS 6 Xposition Yposition Zposition Zrotation Xrotation Yrotation
                    End Site
                    {
                      OFFSET 1.7829 0 0
                    }
                  }
                }
              }
            }
          }
        }
      }
      JOINT rCollar
      {
        OFFSET -4.0677 26.6109 -1.1234
        CHANNELS 6 Xposition Yposition Zposition Zrotation Xrotation Yrotation
        JOINT rShldr
        {
          OFFSET -14.1772 0 0
          CHANNELS 6 Xposition Yposition Zposition Zrotation Xrotation Yrotation
          JOINT rForeArm
          {
            OFFSET -26.1234 0 0
            CHANNELS 6 Xposition Yposition Zposition Zrotation Xrotation Yrotation
            JOINT rHand
            {
              OFFSET -27.7188 0 0
              CHANNELS 6 Xposition Yposition Zposition Zrotation Xrotation Yrotation
              JOINT rThumb1
              {
                OFFSET -2.2979 -0.4684 1.8313
                CHANNELS 6 Xposition Yposition Zposition Zrotation Xrotation Yrotation
                JOINT rThumb2
                {
                  OFFSET -5.2953 0 0
                  CHANNELS 6 Xposition Yposition Zposition Zrotation Xrotation Yrotation
                  JOINT rThumb3
                  {
                    OFFSET -3.0181 0 0
                    CHANNELS 6 Xposition Yposition Zposition Zrotation Xrotation Yrotation
                    End Site
                    {
                      OFFSET -2.6294 0 0
                    }
                  }
                }
              }
              JOINT rIndex1
              {
                OFFSET -9.3793 0.2991 2.5924
                CHANNELS 6 Xposition Yposition Zposition Zrotation Xrotation Yrotation
                JOINT rIndex2
                {
                  OFFSET -4.3461 0 0
                  CHANNELS 6 Xposition Yposition Zposition Zrotation Xrotation Yrotation
                  JOINT rIndex3
                  {
                    OFFSET -2.1666 0 0
                    CHANNELS 6 Xposition Yposition Zposition Zrotation Xrotation Yrotation
                    End Site
                    {
                      OFFSET -2.2048 0 0
                    }
                  }
                }
              }
              JOINT rMid1
              {
                OFFSET -9.4769 0.8376 0.2947
                CHANNELS 6 Xposition Yposition Zposition Zrotation Xrotation Yrotation
                JOINT rMid2
                {
                  OFFSET -4.772 0 0
                  CHANNELS 6 Xposition Yposition Zposition Zrotation Xrotation Yrotation
                  JOINT rMid3
                  {
                    OFFSET -2.8722 0 0
                    CHANNELS 6 Xposition Yposition Zposition Zrotation Xrotation Yrotation
                    End Site
                    {
                      OFFSET -2.0959 0 0
                    }
                  }
                }
              }
              JOINT rRing1
              {
                OFFSET -8.6586 1.0176 -1.7016
                CHANNELS 6 Xposition Yposition Zposition Zrotation Xrotation Yrotation
                JOINT rRing2
                {
                  OFFSET -4.5461 0 0
                  CHANNELS 6 Xposition Yposition Zposition Zrotation Xrotation Yrotation
                  JOINT rRing3
                  {
                    OFFSET -2.506 0 0
                    CHANNELS 6 Xposition Yposition Zposition Zrotation Xrotation Yrotation
                    End Site
                    {
                      OFFSET -2.2023 0 0
                    }
                  }
                }
              }
              JOINT rPinky1
              {
                OFFSET -7.6901 0.6618 -3.9096
                CHANNELS 6 Xposition Yposition Zposition Zrotation Xrotation Yrotation
                JOINT rPinky2
                {
                  OFFSET -3.2119 0 0
                  CHANNELS 6 Xposition Yposition Zposition Zrotation Xrotation Yrotation
                  JOINT rPinky3
                  {
                    OFFSET -1.924 0 0
                    CHANNELS 6 Xposition Yposition Zposition Zrotation Xrotation Yrotation
                    End Site
                    {
                      OFFSET -1.7829 0 0
                    }
                  }
                }
              }
            }
          }
        }
      }
    }
  }
  JOINT lThigh
  {
    OFFSET 8.7379 -0.0029 0.0005
    CHANNELS 6 Xposition Yposition Zposition Zrotation Xrotation Yrotation
    JOINT lShin
    {
      OFFSET 0 -46.6676 0
      CHANNELS 6 Xposition Yposition Zposition Zrotation Xrotation Yrotation
      JOINT lFoot
      {
        OFFSET 0 -40.1476 0
        CHANNELS 6 Xposition Yposition Zposition Zrotation Xrotation Yrotation
        JOINT lToes
        {
          OFFSET 0 -8.8846 14.2294
          CHANNELS 6 Xposition Yposition Zposition Zrotation Xrotation Yrotation
          End Site
          {
            OFFSET 0 0 6.296
          }
        }
      }
    }
  }
  JOINT rThigh
  {
    OFFSET -8.7379 0.0029 -0.0005
    CHANNELS 6 Xposition Yposition Zposition Zrotation Xrotation Yrotation
    JOINT rShin
    {
      OFFSET 0 -46.6676 0
      CHANNELS 6 Xposition Yposition Zposition Zrotation Xrotation Yrotation
      JOINT rFoot
      {
        OFFSET 0 -40.1476 0
        CHANNELS 6 Xposition Yposition Zposition Zrotation Xrotation Yrotation
        JOINT rToes
        {
          OFFSET 0 -8.8846 14.2294
          CHANNELS 6 Xposition Yposition Zposition Zrotation Xrotation Yrotation
          End Site
          {
            OFFSET 0 0 6.296
          }
        }
      }
    }
  }
}
MOTION
Frames:	4
Frame Time:	0.0333333
3.55476 81.8196 3.66506 -0.921189 -4.40417 34.3039 8.88178e-16 7.2397 -1.77636e-15 -1.09213 2.22604 2.17993 0 16.546 -8.88178e-16 -2.97859 6.26102 4.4018 -1.77636e-15 34.2149 -8.88178e-16 -3.9476 33.5223 9.19363 8.88178e-16 6.2923 0 -11.7499 -20.8624 28.5491 4.0639 26.6115 -1.1234 -0.696375 -4.06635 3.28565 14.1772 0 -8.88178e-16 -58.7854 -0.373869 -57.0612 26.1234 0 0 -0.826454 1.10335 -106.352 27.7188 1.42109e-14 4.44089e-15 19.0723 -11.7569 14.8931 2.2979 -0.4685 1.8313 41.7977 57.0324 -96.4075 5.2953 1.77636e-15 0 -30.6168 -8.54011 10.6803 3.0181 1.42109e-14 -1.42109e-14 -8.14209 -6.6282 11.1173 9.3793 0.2991 2.5924 -34.239 -2.82476 0.0609201 4.3461 1.42109e-14 0 -61.0696 -6.48996 11.4433 2.1666 0 -2.13163e-14 -19.6136 -0.729455 3.78989 9.4769 0.8376 0.2947 -24.7017 -4.79115 9.00267 4.772 0 0 -59.139 -7.79151 13.8442 2.8722 -2.84217e-14 -1.42109e-14 -42.9585 -4.18424 12.3769 8.6586 1.0176 -1.7016 -41.2585 0.238105 7.34321 4.5461 -1.42109e-14 7.10543e-15 -50.6434 -3.28547 6.93687 2.506 0 1.42109e-14 -24.2642 -0.729077 4.73307 7.6901 0.6618 -3.9096 -51.4312 -12.6224 7.63102 3.2119 0 -1.42109e-14 -51.4428 -4.645 13.8674 1.924 -1.42109e-14 2.84217e-14 -72.3509 -15.018 22.1401 -4.0677 26.6109 -1.1234 5.72383 -10.9648 8.23513 -14.1772 -2.84217e-14 0 71.0077 20.8323 60.2625 -26.1234 0 0 0.856545 1.33565 91.4428 -27.7188 7.10543e-15 0 -1.53862 7.89752 7.98543 -2.2979 -0.4684 1.8313 34.9222 26.2487 25.1597 -5.2953 1.42109e-14 -1.42109e-14 -9.47822 -18.15 -41.0367 -3.0181 -2.84217e-14 3.55271e-15 -4.77459 -6.64277 -45.9008 -9.3793 0.2991 2.5924 1.76019 -0.760174 16.7436 -4.3461 0 -7.10543e-15 82.9787 -11.3023 -13.0739 -2.1666 -2.84217e-14 1.77636e-15 32.4204 -1.99003 -6.38552 -9.4769 0.8376 0.2947 45.7242 -6.84078 3.40921 -4.772 -2.84217e-14 3.55271e-15 87.2742 -15.4094 -16.2419 -2.8722 1.42109e-14 7.10543e-15 44.7843 -4.46775 -12.7933 -8.6586 1.0176 -1.7016 52.1685 -1.12006 3.15584 -4.5461 0 3.55271e-15 80.3111 -7.53541 -8.92568 -2.506 -7.10543e-15 -3.55271e-15 47.932 -2.94346 -7.7734 -7.6901 0.6618 -3.9096 66.3573 -14.1302 8.75982 -3.2119 0 -1.42109e-14 38.6774 -4.70149 -13.3432 -1.924 0 0 39.9368 -4.93887 -15.3353 8.7379 -0.0029 0.0005 14.4699 -38.3364 23.4532 4.44089e-16 -46.6676 -7.10543e-15 26.8196 64.5451 -23.9115 0 -40.1476 -3.55271e-15 -5.66583 -24.2713 3.80708 0 -8.8846 14.2294 0.0001 0 -9.54166e-15 -8.7379 0.0029 -0.0005 -14.2895 2.15877 -26.2555 0 -46.6676 -3.55271e-15 -8.64583 52.8206 -4.35545 3.55271e-15 -40.1476 -1.77636e-15 26.3642 -37.5739 -8.16435 0 -8.8846 14.2294 7.45443e-16 -3.97569e-16 6.36111e-15 
3.61588 81.8258 3.75284 -0.866314 -4.27919 34.819 -4.44089e-16 7.2397 1.77636e-15 -1.12368 2.23495 2.35942 0 16.546 0 -3.04059 6.2731 4.76455 0 34.2149 -1.77636e-15 -3.96842 33.5896 9.2109 -8.88178e-16 6.2923 0 -11.6227 -20.7344 28.5399 4.0639 26.6115 -1.1234 -0.659367 -4.06963 3.2813 14.1772 0 -1.33227e-15 -59.1196 -0.813505 -56.7265 26.1234 0 0 -0.829385 1.0883 -105.951 27.7188 0 -2.66454e-15 19.7637 -12.5326 14.6366 2.2979 -0.4685 1.8313 41.7977 57.0324 -96.4075 5.2953 -1.77636e-15 -1.42109e-14 -30.6168 -8.54011 10.6803 3.0181 -1.42109e-14 0 -8.14209 -6.6282 11.1173 9.3793 0.2991 2.5924 -34.239 -2.82476 0.0609201 4.3461 0 0 -61.0696 -6.48996 11.4433 2.1666 0 0 -19.6136 -0.729455 3.78989 9.4769 0.8376 0.2947 -24.7017 -4.79115 9.00267 4.772 0 0 -59.139 -7.79151 13.8442 2.8722 0 1.42109e-14 -42.9585 -4.18424 12.3769 8.6586 1.0176 -1.7016 -41.2585 0.238105 7.34321 4.5461 1.42109e-14 0 -50.6434 -3.28547 6.93687 2.506 0 7.10543e-15 -24.2642 -0.729077 4.73307 7.6901 0.6618 -3.9096 -51.4312 -12.6224 7.63102 3.2119 1.42109e-14 0 -51.4428 -4.645 13.8674 1.924 0 0 -72.3509 -15.018 22.1401 -4.0677 26.6109 -1.1234 5.74617 -11.12 8.51089 -14.1772 2.84217e-14 3.55271e-15 70.8876 20.7032 60.804 -26.1234 7.10543e-15 0 0.862146 0.575675 90.7409 -27.7188 -1.42109e-14 7.10543e-15 -0.752116 8.13754 7.42831 -2.2979 -0.4684 1.8313 34.9222 26.2487 25.1597 -5.2953 1.42109e-14 1.42109e-14 -9.47822 -18.15 -41.0367 -3.0181 -2.84217e-14 -3.55271e-15 -4.77459 -6.64277 -45.9008 -9.3793 0.2991 2.5924 1.76019 -0.760174 16.7436 -4.3461 0 7.10543e-15 82.9787 -11.3023 -13.0739 -2.1666 -2.84217e-14 0 32.4204 -1.99003 -6.38552 -9.4769 0.8376 0.2947 45.7242 -6.84078 3.40921 -4.772 0 7.10543e-15 87.2742 -15.4094 -16.2419 -2.8722 -7.10543e-15 1.77636e-15 44.7843 -4.46775 -12.7933 -8.6586 1.0176 -1.7016 52.1685 -1.12006 3.15584 -4.5461 0 7.10543e-15 80.3111 -7.53541 -8.92568 -2.506 0 -1.77636e-15 47.932 -2.94346 -7.7734 -7.6901 0.6618 -3.9096 66.3573 -14.1302 8.75982 -3.2119 0 7.10543e-15 38.6774 -4.70149 -13.3432 -1.924 -1.42109e-14 -7.10543e-15 39.9368 -4.93887 -15.3353 8.7379 -0.0029 0.0005 14.2877 -38.4519 23.4615 1.88738e-15 -46.6676 0 26.757 64.5253 -24.0885 1.77636e-15 -40.1476 3.55271e-15 -5.43977 -24.2937 3.63064 -3.55271e-15 -8.8846 14.2294 0.0001 -9.93923e-17 -1.27222e-14 -8.7379 0.0029 -0.0005 -14.1669 2.34038 -26.2263 0 -46.6676 3.55271e-15 -8.60322 52.6659 -4.39628 0 -40.1476 -4.44089e-15 26.2484 -37.7753 -8.54408 0 -8.8846 14.2294 4.96962e-16 -3.97569e-16 3.18055e-15 
3.54055 81.8134 3.66719 -0.927673 -4.45048 34.3005 4.44089e-16 7.2397 0 -1.08939 2.22968 2.17364 0 16.546 0 -2.97251 6.26838 4.38882 -1.77636e-15 34.2149 -2.66454e-15 -3.93424 33.5134 9.17136 -8.88178e-16 6.2923 -1.42109e-14 -11.7079 -20.843 28.4839 4.0639 26.6115 -1.1234 -0.681198 -4.06659 3.26841 14.1772 0 -4.44089e-16 -58.7583 -0.359462 -57.1004 26.1234 0 -1.42109e-14 -0.827392 1.09577 -106.413 27.7188 0 3.55271e-15 19.0509 -11.6569 14.722 2.2979 -0.4685 1.8313 41.7977 57.0324 -96.4075 5.2953 -1.77636e-15 0 -30.6168 -8.54011 10.6803 3.0181 -7.10543e-15 1.42109e-14 -8.14209 -6.6282 11.1173 9.3793 0.2991 2.5924 -34.239 -2.82476 0.0609201 4.3461 0 0 -61.0696 -6.48996 11.4433 2.1666 2.84217e-14 2.13163e-14 -19.6136 -0.729455 3.78989 9.4769 0.8376 0.2947 -24.7017 -4.79115 9.00267 4.772 1.42109e-14 1.42109e-14 -59.139 -7.79151 13.8442 2.8722 0 0 -42.9585 -4.18424 12.3769 8.6586 1.0176 -1.7016 -41.2585 0.238105 7.34321 4.5461 0 2.13163e-14 -50.6434 -3.28547 6.93687 2.506 0 0 -24.2642 -0.729077 4.73307 7.6901 0.6618 -3.9096 -51.4312 -12.6224 7.63102 3.2119 1.42109e-14 1.42109e-14 -51.4428 -4.645 13.8674 1.924 2.84217e-14 0 -72.3509 -15.018 22.1401 -4.0677 26.6109 -1.1234 5.72963 -10.9467 8.19405 -14.1772 0 -3.55271e-15 71.1892 20.7567 60.1049 -26.1234 -7.10543e-15 0 0.861349 0.841535 91.9027 -27.7188 7.10543e-15 7.10543e-15 -1.45846 8.09019 7.96616 -2.2979 -0.4684 1.8313 34.9222 26.2487 25.1597 -5.2953 1.42109e-14 -1.42109e-14 -9.47822 -18.15 -41.0367 -3.0181 -1.42109e-14 -7.10543e-15 -4.77459 -6.64277 -45.9008 -9.3793 0.2991 2.5924 1.76019 -0.760174 16.7436 -4.3461 0 7.10543e-15 82.9787 -11.3023 -13.0739 -2.1666 0 0 32.4204 -1.99003 -6.38552 -9.4769 0.8376 0.2947 45.7242 -6.84078 3.40921 -4.772 2.84217e-14 -7.10543e-15 87.2742 -15.4094 -16.2419 -2.8722 0 -3.55271e-15 44.7843 -4.46775 -12.7933 -8.6586 1.0176 -1.7016 52.1685 -1.12006 3.15584 -4.5461 -2.84217e-14 7.10543e-15 80.3111 -7.53541 -8.92568 -2.506 -7.10543e-15 -5.32907e-15 47.932 -2.94346 -7.7734 -7.6901 0.6618 -3.9096 66.3573 -14.1302 8.75982 -3.2119 -2.84217e-14 -2.13163e-14 38.6774 -4.70149 -13.3432 -1.924 0 -3.55271e-15 39.9368 -4.93887 -15.3353 8.7379 -0.0029 0.0005 14.482 -38.326 23.4445 -2.55351e-15 -46.6676 0 26.9343 64.5436 -24.0437 1.77636e-15 -40.1476 3.55271e-15 -5.6795 -24.2761 3.85672 0 -8.8846 14.2294 0.0001 -1.49089e-16 -6.36111e-15 -8.7379 0.0029 -0.0005 -14.2294 2.17936 -26.2622 3.55271e-15 -46.6676 0 -8.6546 52.8441 -4.29536 -3.55271e-15 -40.1476 8.88178e-16 26.4297 -37.6314 -8.27201 0 -8.8846 14.2294 4.96962e-16 -1.98785e-16 -3.18055e-15 
3.44455 81.796 3.55498 -1.01181 -4.67157 33.6329 4.44089e-16 7.2397 0 -1.04457 2.22352 1.92872 0 16.546 0 -2.88408 6.2633 3.89349 0 34.2149 1.77636e-15 -3.8958 33.4145 9.12355 1.77636e-15 6.2923 0 -11.8261 -20.9867 28.416 4.0639 26.6115 -1.1234 -0.714316 -4.06252 3.25637 14.1772 -2.84217e-14 4.44089e-16 -58.2546 0.223544 -57.5883 26.1234 -1.42109e-14 0 -0.824507 1.10653 -107.035 27.7188 1.42109e-14 1.77636e-15 18.1162 -10.4834 14.8667 2.2979 -0.4685 1.8313 41.7977 57.0324 -96.4075 5.2953 -1.77636e-15 0 -30.6168 -8.54011 10.6803 3.0181 -1.42109e-14 0 -8.14209 -6.6282 11.1173 9.3793 0.2991 2.5924 -34.239 -2.82476 0.0609201 4.3461 1.42109e-14 -7.10543e-15 -61.0696 -6.48996 11.4433 2.1666 2.84217e-14 0 -19.6136 -0.729455 3.78989 9.4769 0.8376 0.2947 -24.7017 -4.79115 9.00267 4.772 1.42109e-14 1.42109e-14 -59.139 -7.79151 13.8442 2.8722 0 -1.42109e-14 -42.9585 -4.18424 12.3769 8.6586 1.0176 -1.7016 -41.2585 0.238105 7.34321 4.5461 -1.42109e-14 0 -50.6434 -3.28547 6.93687 2.506 0 0 -24.2642 -0.729077 4.73307 7.6901 0.6618 -3.9096 -51.4312 -12.6224 7.63102 3.2119 1.42109e-14 1.42109e-14 -51.4428 -4.645 13.8674 1.924 1.42109e-14 -1.42109e-14 -72.3509 -15.018 22.1401 -4.0677 26.6109 -1.1234 5.71242 -10.722 7.78372 -14.1772 0 0 71.5736 20.8372 59.1787 -26.1234 7.10543e-15 1.42109e-14 0.860698 0.874487 93.5239 -27.7188 -7.10543e-15 -7.10543e-15 -2.37983 7.98836 8.70683 -2.2979 -0.4684 1.8313 34.9222 26.2487 25.1597 -5.2953 0 0 -9.47822 -18.15 -41.0367 -3.0181 0 -3.55271e-15 -4.77459 -6.64277 -45.9008 -9.3793 0.2991 2.5924 1.76019 -0.760174 16.7436 -4.3461 0 0 82.9787 -11.3023 -13.0739 -2.1666 2.84217e-14 -1.77636e-15 32.4204 -1.99003 -6.38552 -9.4769 0.8376 0.2947 45.7242 -6.84078 3.40921 -4.772 0 -3.55271e-15 87.2742 -15.4094 -16.2419 -2.8722 7.10543e-15 5.32907e-15 44.7843 -4.46775 -12.7933 -8.6586 1.0176 -1.7016 52.1685 -1.12006 3.15584 -4.5461 -2.84217e-14 -3.55271e-15 80.3111 -7.53541 -8.92568 -2.506 0 0 47.932 -2.94346 -7.7734 -7.6901 0.6618 -3.9096 66.3573 -14.1302 8.75982 -3.2119 -2.84217e-14 0 38.6774 -4.70149 -13.3432 -1.924 1.42109e-14 -7.10543e-15 39.9368 -4.93887 -15.3353 8.7379 -0.0029 0.0005 14.717 -38.1689 23.4024 1.77636e-15 -46.6676 1.42109e-14 27.1819 64.5639 -23.9983 -1.77636e-15 -40.1476 0 -5.99693 -24.2556 4.15868 -1.77636e-15 -8.8846 14.2294 0.0001 -4.96962e-17 -3.18055e-15 -8.7379 0.0029 -0.0005 -14.3206 1.9738 -26.3078 3.55271e-15 -46.6676 0 -8.72519 53.0768 -4.15561 0 -40.1476 -1.77636e-15 26.6438 -37.4386 -7.90679 0 -8.8846 14.2294 1.2424e-15 3.97569e-16 -0 
